#define peter_bitmap_width 32
#define peter_bitmap_height 32
static char peter_bitmap_bits[] = {
   0x00, 0xf0, 0x03, 0x00, 0x00, 0xfc, 0x0f, 0x00, 0x00, 0xfe, 0x3f, 0x00, 0x00, 0x2f, 0x20, 0x00, 
0x80, 0xe7, 0x78, 0x00, 0x40, 0x16, 0xc7, 0x03, 0x40, 0x55, 0x5d, 0x04, 0x20, 0x10, 0x61, 0x04, 
0x20, 0xe0, 0x20, 0x08, 0x20, 0x10, 0x1c, 0x08, 0x10, 0xe0, 0x20, 0x10, 0x10, 0x00, 0x7f, 0x10, 
0x10, 0x00, 0x40, 0x10, 0x10, 0x00, 0x20, 0x10, 0x10, 0x00, 0x20, 0x10, 0x10, 0x00, 0x20, 0x10, 
0x10, 0x00, 0x40, 0x10, 0x10, 0x00, 0x80, 0x10, 0x10, 0x40, 0x80, 0x10, 0x08, 0x40, 0x4c, 0x10, 
0x14, 0x80, 0x33, 0x10, 0x27, 0x00, 0x00, 0x30, 0x48, 0x00, 0x00, 0xe0, 0x90, 0x00, 0x00, 0x28, 
0x20, 0x01, 0x00, 0x14, 0x40, 0x06, 0x00, 0x12, 0x80, 0x08, 0x00, 0x09, 0x00, 0x31, 0x80, 0x04, 
0x00, 0xc6, 0x40, 0x44, 0x00, 0x08, 0x26, 0x42, 0x00, 0x20, 0x90, 0x41, 0x00, 0x80, 0x03, 0x80 };
